<svg id="_3-User" data-name="3-User" xmlns="http://www.w3.org/2000/svg" width="64.346" height="46.797" viewBox="0 0 64.346 46.797">
  <path id="_3-Friends" data-name="3-Friends" d="M32.024,30.826c10.036,0,18.6,1.591,18.6,7.958S42.114,46.8,32.024,46.8c-10.036,0-18.6-1.591-18.6-7.955S21.933,30.826,32.024,30.826ZM48.07,26.993a45.494,45.494,0,0,1,9.486.83c3.229.635,5.353,1.931,6.233,3.814a5.623,5.623,0,0,1,0,4.884c-1.346,2.921-5.686,3.859-7.372,4.1a.53.53,0,0,1-.592-.6c.862-8.095-5.992-11.933-7.765-12.815a.131.131,0,0,1-.084-.137A.11.11,0,0,1,48.07,26.993Zm-32.514-.005.722.007a.107.107,0,0,1,.092.074.135.135,0,0,1-.081.14c-1.776.882-8.629,4.72-7.768,12.812a.53.53,0,0,1-.589.6c-1.687-.242-6.026-1.18-7.372-4.1a5.606,5.606,0,0,1,0-4.884c.88-1.883,3-3.179,6.23-3.817a45.75,45.75,0,0,1,9.488-.827ZM32.024,0A12.3,12.3,0,0,1,44.335,12.38a12.312,12.312,0,1,1-24.623,0A12.3,12.3,0,0,1,32.024,0ZM48.737,2.065a10.458,10.458,0,0,1,10.017,13.2,10.276,10.276,0,0,1-10.311,7.668A9.934,9.934,0,0,1,47.03,22.8a.463.463,0,0,1-.312-.714,17.086,17.086,0,0,0-.246-19.34.3.3,0,0,1-.047-.321.379.379,0,0,1,.241-.145A10.252,10.252,0,0,1,48.737,2.065Zm-33.131,0a10.3,10.3,0,0,1,2.074.213.4.4,0,0,1,.241.145.307.307,0,0,1-.047.321,17.086,17.086,0,0,0-.246,19.34.463.463,0,0,1-.312.714,9.6,9.6,0,0,1-1.414.137A10.276,10.276,0,0,1,5.592,15.267,10.456,10.456,0,0,1,15.607,2.064Z" transform="translate(0 0)" fill="#c781b7"/>
</svg>
