<svg id="Cart_Icon" data-name="Cart Icon" xmlns="http://www.w3.org/2000/svg" width="18.201" height="17.414" viewBox="0 0 18.201 17.414">
  <g id="Group_9" data-name="Group 9">
    <path id="Path_3259" data-name="Path 3259" d="M6.753,11.42c.156.011.313.031.469.031q4.305,0,8.61,0a.657.657,0,0,1,.721.587.627.627,0,0,1-.548.684,1.75,1.75,0,0,1-.218.011q-4.285,0-8.57,0A2.326,2.326,0,0,1,4.8,10.81c-.159-.682-.31-1.366-.462-2.05q-.8-3.609-1.6-7.22a.289.289,0,0,0-.331-.261c-.563.007-1.127,0-1.69,0a.68.68,0,0,1-.538-.207A.6.6,0,0,1,.041.431.575.575,0,0,1,.57.009,20.544,20.544,0,0,1,2.734.035a1.38,1.38,0,0,1,1.23,1.134c.047.171.036.416.146.5s.354.036.538.036c4.13,0,8.259.01,12.388-.007A1.137,1.137,0,0,1,18.19,3.015c-.2,1.4-.338,2.812-.5,4.219-.08.684-.155,1.368-.243,2.051a1.1,1.1,0,0,1-1.093.964c-1.479.168-2.958.343-4.437.512q-2.159.247-4.32.49c-.281.032-.56.07-.84.105l0,.064Zm6.839-5.264h0c0,.431,0,.861,0,1.292a.635.635,0,0,0,.607.617.628.628,0,0,0,.637-.539,3.429,3.429,0,0,0,.016-.456c0-.716.005-1.432,0-2.147a.632.632,0,1,0-1.261,0c0,.411,0,.822,0,1.233Zm-6.8,0c0,.4,0,.8,0,1.194a.641.641,0,1,0,1.273,0q0-1.193,0-2.387a.64.64,0,1,0-1.272,0c0,.4,0,.8,0,1.194Zm4.66,0c0-.418,0-.835,0-1.253a.637.637,0,0,0-.613-.651.622.622,0,0,0-.639.622q-.015,1.282,0,2.564a.629.629,0,0,0,.632.632.639.639,0,0,0,.622-.663c0-.418,0-.835,0-1.253Z" transform="translate(-0.001 0.006)" fill="#242331"/>
    <path id="Path_3260" data-name="Path 3260" d="M251.466,257.623a1.908,1.908,0,1,1-1.909-1.923,1.915,1.915,0,0,1,1.909,1.923Z" transform="translate(-234.489 -242.112)" fill="#242331"/>
    <path id="Path_3261" data-name="Path 3261" d="M99.645,257.643a1.913,1.913,0,1,1-1.88-1.935,1.92,1.92,0,0,1,1.88,1.935Z" transform="translate(-90.727 -242.118)" fill="#242331"/>
  </g>
</svg>
