<svg xmlns="http://www.w3.org/2000/svg" width="64.02" height="57.394" viewBox="0 0 64.02 57.394">
  <path id="cartCar" d="M0,2.69A2.684,2.684,0,0,1,2.69,0h5.1a6.278,6.278,0,0,1,5.672,3.587H59.535a4.481,4.481,0,0,1,4.327,5.65l-4.6,17.072a8.083,8.083,0,0,1-7.791,5.975H19.135l.605,3.195a2.7,2.7,0,0,0,2.645,2.186H54.7a2.69,2.69,0,0,1,0,5.381H22.386a8.062,8.062,0,0,1-7.925-6.558L8.676,6.109a.892.892,0,0,0-.886-.729H2.69A2.684,2.684,0,0,1,0,2.69ZM14.348,52.013a5.381,5.381,0,1,1,5.381,5.381,5.381,5.381,0,0,1-5.381-5.381Zm37.665-5.381a5.381,5.381,0,1,1-5.381,5.381A5.381,5.381,0,0,1,52.013,46.632Zm-23.765-28.7a2.249,2.249,0,0,0,2.242,2.242h4.932V25.11a2.242,2.242,0,0,0,4.484,0V20.178h4.932a2.242,2.242,0,1,0,0-4.484H39.907V10.761a2.242,2.242,0,0,0-4.484,0v4.932H30.49A2.249,2.249,0,0,0,28.249,17.936Z" fill="#c7c7c7"/>
</svg>
