<svg xmlns="http://www.w3.org/2000/svg" width="57" height="45.611" viewBox="0 0 57 45.611">
  <path id="closeAc" d="M8.552,11.4a11.4,11.4,0,1,1,11.4,11.4,11.4,11.4,0,0,1-11.4-11.4ZM0,42.965A15.88,15.88,0,0,1,15.884,27.081h8.142A15.88,15.88,0,0,1,39.909,42.965a2.646,2.646,0,0,1-2.646,2.646H2.646A2.646,2.646,0,0,1,0,42.965ZM41.958,12.739a2.129,2.129,0,0,1,3.02,0l4.187,4.187,4.187-4.187a2.135,2.135,0,1,1,3.02,3.02l-4.187,4.187,4.187,4.187a2.135,2.135,0,1,1-3.02,3.02l-4.187-4.187-4.187,4.187a2.135,2.135,0,1,1-3.02-3.02l4.187-4.187-4.187-4.187a2.129,2.129,0,0,1,0-3.02Z" fill="#c781b7"/>
</svg>
