<svg id="Discount" xmlns="http://www.w3.org/2000/svg" width="35.298" height="35.29" viewBox="0 0 35.298 35.29">
  <path id="Path_3357" data-name="Path 3357" d="M13.882,1.563A5.326,5.326,0,0,1,21.4,1.547h0l1.289,1.287a2.648,2.648,0,0,0,1.871.778h1.819A5.317,5.317,0,0,1,31.7,8.922h0v1.82a2.643,2.643,0,0,0,.777,1.869h0l1.271,1.271a5.347,5.347,0,0,1,.035,7.5h0l-1.307,1.306a2.645,2.645,0,0,0-.777,1.873h0v1.816a5.32,5.32,0,0,1-5.314,5.314H24.563a2.645,2.645,0,0,0-1.871.775h0l-1.271,1.271A5.286,5.286,0,0,1,17.66,35.29,5.348,5.348,0,0,1,13.9,33.756h0l-1.289-1.29a2.644,2.644,0,0,0-1.871-.775H8.92a5.32,5.32,0,0,1-5.314-5.314h0V24.561a2.718,2.718,0,0,0-.777-1.89h0L1.558,21.418A5.333,5.333,0,0,1,1.54,13.9h0l1.289-1.29a2.655,2.655,0,0,0,.777-1.888h0v-1.8A5.317,5.317,0,0,1,8.92,3.612h1.819a2.648,2.648,0,0,0,1.871-.778h0ZM22.2,20.641a1.544,1.544,0,1,0,1.536,1.535A1.542,1.542,0,0,0,22.2,20.641Zm1.077-8.63a1.538,1.538,0,0,0-2.172,0h0l-9.075,9.072a1.555,1.555,0,0,0,0,2.188,1.514,1.514,0,0,0,2.172,0h0l9.075-9.07A1.557,1.557,0,0,0,23.274,12.011ZM13.122,11.57a1.544,1.544,0,1,0,1.536,1.535A1.552,1.552,0,0,0,13.122,11.57Z" transform="translate(0 0)" fill="#c48fbf"/>
</svg>
