<svg xmlns="http://www.w3.org/2000/svg" width="24.9" height="24.9" viewBox="0 0 24.9 24.9">
  <path id="download" d="M14.006,1.556a1.556,1.556,0,0,0-3.112,0v11.8L7.324,9.79a1.558,1.558,0,0,0-2.2,2.2l6.225,6.225a1.559,1.559,0,0,0,2.2,0l6.225-6.225a1.558,1.558,0,0,0-2.2-2.2l-3.565,3.57ZM3.112,17.119A3.115,3.115,0,0,0,0,20.231v1.556A3.115,3.115,0,0,0,3.112,24.9H21.787A3.115,3.115,0,0,0,24.9,21.787V20.231a3.115,3.115,0,0,0-3.112-3.112H16.851l-2.2,2.2a3.111,3.111,0,0,1-4.4,0l-2.2-2.2Zm17.9,2.723a1.167,1.167,0,1,1-1.167,1.167A1.167,1.167,0,0,1,21.009,19.842Z"/>
</svg>
