<svg xmlns="http://www.w3.org/2000/svg" width="17.109" height="13.494" viewBox="0 0 17.109 13.494">
  <path id="downPrice" d="M4.888,15.431a.963.963,0,0,1-1.422,0L.815,12.539a.964.964,0,0,1,1.422-1.3L3.213,12.3V3.214a.964.964,0,0,1,1.928,0V12.3l.976-1.066a.964.964,0,0,1,1.422,1.3L4.888,15.428Zm5.072.313a.964.964,0,1,1,0-1.928h.964a.964.964,0,1,1,0,1.928Zm0-3.855a.964.964,0,1,1,0-1.928h2.892a.964.964,0,1,1,0,1.928Zm0-3.855a.964.964,0,1,1,0-1.928h4.819a.964.964,0,1,1,0,1.928Zm0-3.855a.964.964,0,1,1,0-1.928h6.747a.964.964,0,1,1,0,1.928Z" transform="translate(-0.562 -2.25)" fill="#a5a5a5"/>
</svg>
