<svg xmlns="http://www.w3.org/2000/svg" width="53.02" height="53.02" viewBox="0 0 53.02 53.02">
  <path id="emailAdr" d="M6.628,21.55,26.51,6.824,46.392,21.55v4.908L29.979,38.626a5.8,5.8,0,0,1-3.469,1.139,5.872,5.872,0,0,1-3.469-1.139L6.628,26.458ZM26.51,0a5.872,5.872,0,0,0-3.469,1.139L2.682,16.227A6.621,6.621,0,0,0,0,21.55V46.392A6.634,6.634,0,0,0,6.628,53.02H46.392a6.634,6.634,0,0,0,6.628-6.628V21.55a6.607,6.607,0,0,0-2.682-5.323L29.979,1.139A5.872,5.872,0,0,0,26.51,0Z" fill="#c781b7"/>
</svg>
