<svg id="Fav_Icon" data-name="Fav Icon" xmlns="http://www.w3.org/2000/svg" width="17.878" height="17.869" viewBox="0 0 17.878 17.869">
  <path id="Path_3262" data-name="Path 3262" d="M17.867,8.907A8.938,8.938,0,1,1,8.881-.009a8.938,8.938,0,0,1,8.987,8.916ZM8.933,6.62c-.2-.221-.356-.4-.527-.567a2.318,2.318,0,0,0-1.6-.664A2.23,2.23,0,0,0,4.685,6.68a2.286,2.286,0,0,0,.379,2.513q1.586,1.726,3.177,3.447a.887.887,0,0,0,1.377,0c1.071-1.157,2.144-2.312,3.2-3.48a2.156,2.156,0,0,0,.527-1.944,2.111,2.111,0,0,0-1.508-1.712,2.3,2.3,0,0,0-2.336.5c-.192.17-.352.376-.57.612Z" transform="translate(0.01 0.01)" fill="#242331"/>
</svg>
