<svg xmlns="http://www.w3.org/2000/svg" width="52.665" height="52.665" viewBox="0 0 52.665 52.665">
  <path id="free" d="M14.289,44.523a4.072,4.072,0,1,1-4,4.085A4.036,4.036,0,0,1,14.289,44.523Zm29.6,0a4.072,4.072,0,1,1-4,4.085A4.036,4.036,0,0,1,43.89,44.523ZM2.049,0l.268.023L8.593.988a2.013,2.013,0,0,1,1.631,1.827h0l.5,6.019a1.62,1.62,0,0,0,1.605,1.508H47.864a4.442,4.442,0,0,1,3.71,1.8,5.81,5.81,0,0,1,1,4.619h0l-2.5,17.628a6.761,6.761,0,0,1-6.657,5.885H14.71A6.763,6.763,0,0,1,8.027,33.99h0L5.606,4.7,1.633,4A2.017,2.017,0,0,1,2.317.023ZM39.207,20.282H31.918a2.016,2.016,0,0,0,0,4.031h7.288a2.016,2.016,0,0,0,0-4.031Z" transform="translate(0 0)" fill="#c781b7"/>
</svg>
