<svg xmlns="http://www.w3.org/2000/svg" width="28.805" height="28.805" viewBox="0 0 28.805 28.805">
  <g id="Google__G__logo" transform="translate(-1 -1)">
    <path id="Path_3393" data-name="Path 3393" d="M25.826,12.946A16.549,16.549,0,0,0,25.565,10H12v5.578h7.751a6.641,6.641,0,0,1-2.894,4.334v3.627h4.674a14.072,14.072,0,0,0,4.295-10.592Z" transform="translate(3.403 2.784)" fill="#4285f4"/>
    <path id="Path_3394" data-name="Path 3394" d="M15.038,25.753a13.746,13.746,0,0,0,9.532-3.483L19.9,18.643A8.659,8.659,0,0,1,6.972,14.1H2.18v3.718A14.389,14.389,0,0,0,15.038,25.753Z" transform="translate(0.365 4.052)" fill="#34a853"/>
    <path id="Path_3395" data-name="Path 3395" d="M7.337,16.261a8.4,8.4,0,0,1,0-5.473V7.07H2.545a14.257,14.257,0,0,0,0,12.91l3.732-2.907,1.061-.812Z" transform="translate(0 1.878)" fill="#fbbc05"/>
    <path id="Path_3396" data-name="Path 3396" d="M15.038,6.735A7.858,7.858,0,0,1,20.55,8.882l4.124-4.124A13.817,13.817,0,0,0,15.038,1,14.377,14.377,0,0,0,2.18,8.948l4.792,3.718a8.6,8.6,0,0,1,8.065-5.931Z" transform="translate(0.365)" fill="#ea4335"/>
    <path id="Path_3397" data-name="Path 3397" d="M1,1H29.805V29.805H1Z" fill="none"/>
  </g>
</svg>
