<svg id="Insta2" xmlns="http://www.w3.org/2000/svg" width="17.203" height="17.772" viewBox="0 0 17.203 17.772">
  <g id="Group_11" data-name="Group 11">
    <path id="Path_3264" data-name="Path 3264" d="M17.2,8.887c0,1.328.006,2.657,0,3.985a4.87,4.87,0,0,1-3.7,4.751,4.8,4.8,0,0,1-1.115.14q-3.777.018-7.554.005a4.859,4.859,0,0,1-4.755-4.1A5.681,5.681,0,0,1,0,12.823Q0,8.886,0,4.95A4.871,4.871,0,0,1,3.867.111a3.973,3.973,0,0,1,.863-.1Q8.6,0,12.462.006a4.867,4.867,0,0,1,4.661,4.068A7.516,7.516,0,0,1,17.2,5.081c.008,1.269,0,2.538,0,3.807ZM1.734,8.879c0,1.328,0,2.657,0,3.985a3.205,3.205,0,0,0,.063.668,3.11,3.11,0,0,0,3.129,2.512c2.445.018,4.891,0,7.336.006a3.194,3.194,0,0,0,3.209-3.26c-.033-2.61-.005-5.221-.013-7.832a3.784,3.784,0,0,0-.1-.881A3.163,3.163,0,0,0,12.181,1.72c-2.386.019-4.772,0-7.157.006a3.821,3.821,0,0,0-.593.032,3.141,3.141,0,0,0-2.7,3.155q0,1.983,0,3.966Z" transform="translate(0.001 -0.001)" fill="#242331"/>
    <path id="Path_3265" data-name="Path 3265" d="M74.491,74.93a4.916,4.916,0,1,1-4.931,4.88A4.923,4.923,0,0,1,74.491,74.93Zm-3.2,4.905a3.183,3.183,0,1,0,3.193-3.172A3.171,3.171,0,0,0,71.291,79.835Z" transform="translate(-65.874 -70.96)" fill="#242331"/>
    <path id="Path_3266" data-name="Path 3266" d="M240.754,63.192a.738.738,0,0,1-.745-.74.754.754,0,0,1,.749-.762.766.766,0,0,1,.752.746A.755.755,0,0,1,240.754,63.192Z" transform="translate(-227.292 -58.421)" fill="#242331"/>
  </g>
</svg>
