<svg xmlns="http://www.w3.org/2000/svg" xmlns:xlink="http://www.w3.org/1999/xlink" width="68.582" height="74.974" viewBox="0 0 68.582 74.974">
  <defs>
    <linearGradient id="linear-gradient" x1="-0.061" y1="-0.026" x2="1.202" y2="1.159" gradientUnits="objectBoundingBox">
      <stop offset="0" stop-color="#b48e5d"/>
      <stop offset="0.19" stop-color="#8e6f3f"/>
      <stop offset="0.39" stop-color="#c89e61"/>
      <stop offset="0.55" stop-color="#efbd79"/>
      <stop offset="0.63" stop-color="#feca82"/>
      <stop offset="0.7" stop-color="#ecbb77"/>
      <stop offset="0.85" stop-color="#bf965c"/>
      <stop offset="1" stop-color="#8e6f3f"/>
    </linearGradient>
    <linearGradient id="linear-gradient-2" x1="0.32" y1="0.278" x2="1.474" y2="1.803" xlink:href="#linear-gradient"/>
    <linearGradient id="linear-gradient-3" x1="-1.079" y1="-2.777" x2="2.253" y2="4.423" xlink:href="#linear-gradient"/>
    <linearGradient id="linear-gradient-4" x1="-2.198" y1="-2.658" x2="4.168" y2="5.218" xlink:href="#linear-gradient"/>
    <linearGradient id="linear-gradient-5" x1="0.054" y1="-1.411" x2="0.78" y2="1.401" xlink:href="#linear-gradient"/>
    <linearGradient id="linear-gradient-6" x1="-2.551" y1="-2.263" x2="2.247" y2="2.279" xlink:href="#linear-gradient"/>
    <linearGradient id="linear-gradient-7" x1="-1.078" y1="-1.005" x2="0.859" y2="0.874" xlink:href="#linear-gradient"/>
    <linearGradient id="linear-gradient-8" x1="-2.179" y1="-5.32" x2="0.852" y2="1.475" xlink:href="#linear-gradient"/>
    <linearGradient id="linear-gradient-9" x1="-3.835" y1="-6.362" x2="0.535" y2="0.655" xlink:href="#linear-gradient"/>
  </defs>
  <g id="Logo_01" data-name="Logo 01" transform="translate(-10.371 -11.337)">
    <g id="Group_34" data-name="Group 34" transform="translate(10.371 11.337)">
      <g id="Group_32" data-name="Group 32" transform="translate(2.902)">
        <g id="Group_31" data-name="Group 31">
          <path id="Path_3358" data-name="Path 3358" d="M57.328,28.571,46.036,7.1C43.589,1.958,42.939.243,39.3.243V0H53.14l8.1,17.109L57.328,28.575ZM36.064,21.7v-.243c4.572,0,5.469-8.734,5.469-11.593h.243c0,2.858.9,11.593,5.673,11.593V21.7H36.06Zm26.552,6.871v-.243c3.265,0,3.265-1.794,3.265-7.1V0H79.147V.243c-3.675,0-3.675,1.8-3.675,7.1V21.224c0,5.306,0,7.1,3.675,7.1v.243Z" transform="translate(-25.866)" fill="#242331"/>
          <path id="Path_3359" data-name="Path 3359" d="M47.778,94.506c-.167.113-.334.218-.508.323h.766l.272-.243A3.135,3.135,0,0,1,47.778,94.506ZM47.5,66.258V66.5c5.713,0,7.02,3.428,7.02,14.04s-1.307,14.044-4.979,14.044v.243c10.652.084,14.977-6.08,14.977-14.287C64.514,70.95,60.188,66.175,47.5,66.258Z" transform="translate(-33.004 -42.194)" fill="#242331"/>
          <path id="Path_3360" data-name="Path 3360" d="M22.764,94.508c-.167.113-.334.218-.508.323H7.99v-.243c3.672,0,3.672-1.8,3.672-7.1V73.607c0-5.306,0-7.1-3.672-7.1V66.26H21.253V88.752c0,4.031,0,5.411,1.511,5.756Z" transform="translate(-7.99 -42.196)" fill="#242331"/>
          <path id="Path_3361" data-name="Path 3361" d="M149.143,103.274c-1.918-3.225-5.549-3.919-11.182-3.919v-.084c5.469-.323,13.47-.774,13.47-6.977,0-6.94-7.837-7.187-14.861-7.1v.243c4.369,0,5.063,2.982,5.063,6.86s-1.1,6.835-4.9,6.835h-.163v.287h.287c2.288,0,2.775,5.814,3.715,9.2a10.277,10.277,0,0,0,.461,1.315,6.5,6.5,0,0,0,.309.639c1.514,2.836,4.166,3.516,7.638,3.516a22.836,22.836,0,0,0,6.574-.817v-.243C152.165,113.6,151.878,107.886,149.143,103.274Z" transform="translate(-89.873 -54.245)" fill="#242331"/>
          <path id="Path_3362" data-name="Path 3362" d="M113.208,106.71v.189H96.68v-.189c3.672,0,3.672-1.38,3.672-5.462V90.578c0-4.082,0-5.179-3.672-5.179V85.21h13.263v16.982c0,3.45,0,4.518,3.265,4.518Z" transform="translate(-64.47 -54.264)" fill="#242331"/>
        </g>
        <path id="Path_3363" data-name="Path 3363" d="M157.887,0h-.294c0,3.447-1.082,13.99-6.6,13.99v.592c5.764,0,6.846,10.543,6.846,13.99h.294c0-3.447,1.082-13.99,6.6-13.99V13.99C158.973,13.99,157.887,3.45,157.887,0Z" transform="translate(-99.056)" fill="url(#linear-gradient)"/>
      </g>
      <g id="Group_33" data-name="Group 33" transform="translate(0 45.655)">
        <path id="Path_3364" data-name="Path 3364" d="M8.339,132.69c-1.3,2.568-6.515,10.834-7.572,10.834-.229,0-.356-.156-.356-.436,0-1.46,2.931-6.258,7.02-10.4H6.457C2.517,136.769,0,141.446,0,143.215c0,.461.178.715.538.715,1.623,0,7.195-8.418,8.4-11.24Zm9.868-.055c2.633-1.649,4.431-3.842,4.431-5.317,0-.97-.766-1.609-2.579-1.609a13.6,13.6,0,0,0-3.893.592v.309a10.273,10.273,0,0,1,3.381-.621c1.405,0,2.045.563,2.045,1.431,0,1.329-1.507,3.352-3.915,4.946-.167.113-.334.218-.508.323a14.79,14.79,0,0,1-5.531,2,.283.283,0,0,0-.254.207c0,.076.1.1.28.1.538,0,1.787-.309,2.96-.309,1.3,0,2.477.385,2.477,1.965,0,2.223-2.4,4.492-4.9,5.847a18.513,18.513,0,0,1-5.767-1.482,2.572,2.572,0,0,0-.792-.254c-.28,0-.487.356-.487.868a2.567,2.567,0,0,0,2.884,2.448,10.008,10.008,0,0,0,4.187-1.2c.432.025.893.051,1.376.051a8.773,8.773,0,0,0,4.227-.766,5.465,5.465,0,0,0,1.133-.792l-.229-.28q-.125.109-.251.207s0,.007-.007.007a7.457,7.457,0,0,1-4.7,1.268c-.33,0-.661,0-.97-.025,2.731-1.558,5.183-4.006,5.183-6.1s-2.451-2.117-3.214-2.117H14.52a15.584,15.584,0,0,0,3.6-1.645c.029-.018.054-.033.084-.054ZM8.244,143.727c-1.38,0-2.375-.588-2.375-2.219,0-.131,0-.309.127-.309a18.188,18.188,0,0,0,5.615,1.609A8.244,8.244,0,0,1,8.244,143.727Z" transform="translate(0 -125.71)" fill="url(#linear-gradient-2)"/>
        <path id="Path_3365" data-name="Path 3365" d="M56.193,166.262a3.865,3.865,0,0,1-2.655,1.173,2.164,2.164,0,0,1-1.685-.741,3.567,3.567,0,0,1-2.757,1.99.691.691,0,0,1-.766-.741c0-.715.69-1.863,2.553-3.062a.392.392,0,0,1,.229.33.22.22,0,0,1-.076.153c-.537.254-2.092,1.456-2.092,2.579,0,.254.1.33.356.33.817,0,1.965-1.122,2.244-2.117a3.251,3.251,0,0,1-.178-1.071c0-.1.051-.305.2-.305.33,0,.588.588.588.893a1.718,1.718,0,0,1-.051.356,1.562,1.562,0,0,0,1.583.919,3.235,3.235,0,0,0,2.244-.97l.254.28Z" transform="translate(-30.778 -150.591)" fill="url(#linear-gradient-3)"/>
        <path id="Path_3366" data-name="Path 3366" d="M70.872,165.567a2.909,2.909,0,0,1,.251-1.053c-.5.389-2.244,1.718-2.775,1.718a.4.4,0,0,1-.458-.436,6.155,6.155,0,0,1,1.994-3.141c.138,0,.229.185.229.276,0,.16-1.58,1.7-1.58,2.546a.123.123,0,0,0,.138.138c.6,0,2.408-1.489,2.865-1.925.367-.643.8-1.169,1.031-1.169.207,0,.3,0,.3.091a.239.239,0,0,1-.047.16c-.069.138-1.467,1.718-1.467,2.5,0,.229.116.436.617.436a6.5,6.5,0,0,0,3.461-1.812l.229.251a7.84,7.84,0,0,1-4.264,2.016c-.389,0-.527-.251-.527-.6Z" transform="translate(-43.234 -149.151)" fill="url(#linear-gradient-4)"/>
        <path id="Path_3367" data-name="Path 3367" d="M106.819,147.988s-5.967,0-9.5,0c-6.788,0-16.877,0-17.832,0,.864-1.133,1.685-2.208,2.3-3.051h-.85c-.646.908-1.435,1.972-2.237,3.051,0,0-9.468-.076-10.209-.076,0,0-.483,0-.559.254,0,.2.483.33.843.33,1.071,0,2.985-.025,5.281-.025.97,0,2.528.025,4.238.051-1.155,1.543-2.292,3.116-3.062,4.38-.174.276-.323.541-.454.784a3.586,3.586,0,0,0-.519,1.42c0,.537.385.741.868.741a8.319,8.319,0,0,0,3.973-1.6,4.233,4.233,0,0,0,.723-.621l-.254-.28s-.036.036-.058.054a8.707,8.707,0,0,1-4.358,2.063c-.28,0-.407-.2-.407-.559,0-.715,2.219-3.624,4.336-6.381,2.215.033,12.112.073,18.551.109,3.214.018,8.9.036,9.01.054.585,0,.686-.178.686-.487C107.327,148.013,107.073,147.988,106.819,147.988Z" transform="translate(-43.259 -137.95)" fill="url(#linear-gradient-5)"/>
        <path id="Path_3368" data-name="Path 3368" d="M103.338,161.69l.254.28a8.531,8.531,0,0,1-4.7,2.219.668.668,0,0,1-.766-.741c0-1.1,1.326-2.985,1.685-2.985a.192.192,0,0,1,.178.1.472.472,0,0,1,.051.178c0,.254-1.224,1.736-1.224,2.477,0,.254.153.432.538.432a7.2,7.2,0,0,0,3.98-1.965ZM101.707,158c.127,0,.178.1.178.229,0,.254-.331.715-.614.715a.251.251,0,0,1-.229-.254A.842.842,0,0,1,101.707,158Z" transform="translate(-62.492 -146.273)" fill="url(#linear-gradient-6)"/>
        <path id="Path_3369" data-name="Path 3369" d="M101.959,168.742l.407-.614a4.374,4.374,0,0,1-1.939.715c-.33,0-.588-.127-.588-.512,0-1.453,3.24-3.062,3.777-3.062,0,0,.305,0,.33.2,0,.2-.1.33-.229.33-1.3.051-3.4,1.685-3.4,2.4,0,.152.1.28.356.305.766-.025,2.244-1.1,3.112-2.27a.457.457,0,0,1,.407-.2.3.3,0,0,1,.305.331c0,.33-.381.69-.563.893-.33.432-.766.97-1.275,1.583a1.4,1.4,0,0,0,.305.025c1.148,0,3.011-.432,5.462-2.579l.254.28a10.407,10.407,0,0,1-6.123,2.807,1.138,1.138,0,0,1-.305-.025l-.051.051a6.181,6.181,0,0,1,.127,1.2c0,4.391-4.645,9.6-6.33,9.621a.833.833,0,0,1-.843-.944c0-1.99,3.752-6.381,6.483-10.133a.362.362,0,0,1-.153-.305.174.174,0,0,1,.178-.178,2.787,2.787,0,0,0,.28.076Zm-.051,2.375a4.5,4.5,0,0,0-.153-1.173c-2.579,3.189-6.047,7.579-6.047,9.341a.362.362,0,0,0,.356.407C97.749,179.692,101.908,174.945,101.908,171.117Z" transform="translate(-60.6 -150.903)" fill="url(#linear-gradient-7)"/>
        <path id="Path_3370" data-name="Path 3370" d="M132.3,167.256a3.246,3.246,0,0,1,.28-1.173c-.563.432-2.5,1.914-3.087,1.914a.453.453,0,0,1-.512-.487,6.864,6.864,0,0,1,2.219-3.5c.153,0,.254.2.254.305,0,.178-1.761,1.888-1.761,2.833a.135.135,0,0,0,.153.153c.665,0,2.68-1.66,3.189-2.143.407-.715.893-1.3,1.148-1.3.229,0,.33,0,.33.1a.274.274,0,0,1-.051.178c-.076.153-1.634,1.914-1.634,2.782,0,.254.127.483.69.483,1.249,0,3.011-1.224,3.853-2.016l.254.28a8.714,8.714,0,0,1-4.747,2.244c-.432,0-.588-.28-.588-.665Z" transform="translate(-82.137 -150.005)" fill="url(#linear-gradient-8)"/>
        <path id="Path_3371" data-name="Path 3371" d="M155.522,165.944l.254.28c-.665.766-3.24,2.5-4.8,2.5a1.16,1.16,0,0,1-1.2-1.122c0-1.482,2.092-2.884,3.062-2.884.356,0,.487.2.487.432,0,.614-1.507,1.634-2.884,2.346,0,.432.2.741.843.741C152.435,168.239,154.683,166.786,155.522,165.944Zm-5,1.148c1.3-.639,2.194-1.351,2.194-1.761,0-.1-.076-.153-.2-.153C151.719,165.178,150.775,166.224,150.521,167.092Z" transform="translate(-95.383 -150.552)" fill="url(#linear-gradient-9)"/>
      </g>
    </g>
  </g>
</svg>
