<svg id="Mastercard-logo" xmlns="http://www.w3.org/2000/svg" width="78.545" height="61" viewBox="0 0 78.545 61">
  <path id="XMLID_1775_" d="M60.121,668.34v-4.048a2.374,2.374,0,0,0-2.563-2.563,2.654,2.654,0,0,0-2.3,1.148,2.368,2.368,0,0,0-2.162-1.148,2.174,2.174,0,0,0-1.887.943v-.81H49.8v6.477h1.415v-3.577c0-1.148.605-1.69,1.549-1.69s1.415.605,1.415,1.69v3.577h1.415v-3.577a1.5,1.5,0,0,1,1.549-1.69c.943,0,1.415.605,1.415,1.69v3.577Zm20.988-6.477h-2.3v-1.957H77.4v1.957H76.118v1.281H77.4v2.971c0,1.486.605,2.358,2.225,2.358A3.8,3.8,0,0,0,81.377,668l-.409-1.219a2.263,2.263,0,0,1-1.218.338c-.676,0-.943-.409-.943-1.077v-2.9h2.3v-1.281Zm12.011-.141a1.918,1.918,0,0,0-1.69.943v-.81H90.016v6.477h1.415v-3.647c0-1.077.472-1.69,1.352-1.69a4.346,4.346,0,0,1,.88.134l.409-1.352a5.613,5.613,0,0,0-.951-.055ZM74.97,662.4a4.642,4.642,0,0,0-2.633-.676c-1.619,0-2.7.81-2.7,2.091,0,1.077.81,1.69,2.225,1.887l.676.071c.739.134,1.148.338,1.148.676,0,.472-.542.81-1.486.81a3.73,3.73,0,0,1-2.162-.676l-.676,1.077a4.742,4.742,0,0,0,2.767.81c1.887,0,2.971-.88,2.971-2.091,0-1.148-.88-1.753-2.225-1.957l-.676-.071c-.605-.071-1.077-.2-1.077-.605,0-.472.472-.739,1.218-.739a4.869,4.869,0,0,1,2.028.542l.6-1.148Zm37.645-.676a1.918,1.918,0,0,0-1.69.943v-.81h-1.415v6.477h1.415v-3.647c0-1.077.472-1.69,1.352-1.69a4.345,4.345,0,0,1,.88.134l.409-1.336a4.312,4.312,0,0,0-.951-.071Zm-18.08,3.38a3.242,3.242,0,0,0,3.443,3.372,3.389,3.389,0,0,0,2.3-.739l-.676-1.148a2.7,2.7,0,0,1-1.69.605,1.915,1.915,0,0,1-1.957-2.091,1.985,1.985,0,0,1,1.957-2.091,2.767,2.767,0,0,1,1.69.605l.676-1.148a3.35,3.35,0,0,0-2.3-.739,3.237,3.237,0,0,0-3.443,3.372Zm13.088,0v-3.239h-1.415v.81a2.445,2.445,0,0,0-2.028-.943,3.375,3.375,0,0,0,0,6.745,2.288,2.288,0,0,0,2.028-.943v.81h1.415V665.1Zm-5.2,0a1.962,1.962,0,1,1,3.915,0,1.962,1.962,0,1,1-3.915,0ZM85.5,661.721a3.374,3.374,0,0,0,.071,6.745,4.112,4.112,0,0,0,2.633-.88l-.676-1.014a3.214,3.214,0,0,1-1.887.676A1.824,1.824,0,0,1,83.68,665.7h4.787v-.542c.063-2.083-1.156-3.435-2.971-3.435Zm0,1.218a1.576,1.576,0,0,1,1.619,1.549H83.743A1.706,1.706,0,0,1,85.5,662.94ZM120.65,665.1v-5.8h-1.415v3.372a2.445,2.445,0,0,0-2.028-.943,3.375,3.375,0,0,0,0,6.745,2.288,2.288,0,0,0,2.028-.943v.81h1.415V665.1Zm-5.2,0a1.962,1.962,0,1,1,3.915,0,1.962,1.962,0,1,1-3.915,0Zm-47.369,0v-3.239H66.669v.81a2.445,2.445,0,0,0-2.028-.943,3.375,3.375,0,0,0,0,6.745,2.288,2.288,0,0,0,2.028-.943v.81h1.415V665.1Zm-5.259,0a1.962,1.962,0,1,1,3.915,0,1.962,1.962,0,1,1-3.915,0Z" transform="translate(-45.885 -607.474)"/>
  <g id="Group_40" data-name="Group 40" transform="translate(0)">
    <rect id="rect19" width="21.256" height="38.188" transform="translate(28.613 5.196)" fill="#ff5a00"/>
    <path id="XMLID_330_" d="M30.028,24.29A24.359,24.359,0,0,1,39.273,5.2,24.282,24.282,0,1,0,24.29,48.58a24.16,24.16,0,0,0,14.983-5.2A24.241,24.241,0,0,1,30.028,24.29Z" transform="translate(0)" fill="#eb001b"/>
    <path id="path22" d="M538.873,24.29A24.267,24.267,0,0,1,499.6,43.384a24.341,24.341,0,0,0,0-38.188A24.267,24.267,0,0,1,538.873,24.29Z" transform="translate(-460.327 0)" fill="#f79e1b"/>
  </g>
</svg>
