<svg id="MenuDots" xmlns="http://www.w3.org/2000/svg" width="23.227" height="12.927" viewBox="0 0 23.227 12.927">
  <g id="Group_8" data-name="Group 8">
    <path id="Path_3253" data-name="Path 3253" d="M114.214,5.182a2.617,2.617,0,0,1-2.576-2.622,2.591,2.591,0,0,1,5.182.06,2.616,2.616,0,0,1-2.606,2.562Z" transform="translate(-102.615 0.001)" fill="#242331"/>
    <path id="Path_3254" data-name="Path 3254" d="M114.224,95.81a2.591,2.591,0,1,1-2.584,2.582A2.614,2.614,0,0,1,114.224,95.81Z" transform="translate(-102.618 -88.067)" fill="#242331"/>
    <path id="Path_3255" data-name="Path 3255" d="M5.16,2.576a2.594,2.594,0,0,1-2.553,2.6A2.592,2.592,0,0,1,2.551,0,2.592,2.592,0,0,1,5.16,2.575Z" transform="translate(0.001 0.003)" fill="#242331"/>
    <path id="Path_3256" data-name="Path 3256" d="M5.161,98.411A2.593,2.593,0,0,1,2.594,101a2.591,2.591,0,1,1,2.567-2.591Z" transform="translate(0 -88.075)" fill="#242331"/>
    <path id="Path_3257" data-name="Path 3257" d="M228.711,2.593A2.58,2.58,0,1,1,226.118,0,2.592,2.592,0,0,1,228.711,2.593Z" transform="translate(-205.484 0.001)" fill="#242331"/>
    <path id="Path_3258" data-name="Path 3258" d="M223.541,98.366A2.581,2.581,0,1,1,226.063,101,2.593,2.593,0,0,1,223.541,98.366Z" transform="translate(-205.475 -88.075)" fill="#242331"/>
  </g>
</svg>
