<svg xmlns="http://www.w3.org/2000/svg" width="17.436" height="17.208" viewBox="0 0 17.436 17.208">
  <path id="navSearch" d="M17.439,16.028a3.083,3.083,0,0,1-.279.592,1.4,1.4,0,0,1-2.2.1q-1.868-1.864-3.728-3.734a.225.225,0,0,0-.349-.038,6.823,6.823,0,0,1-4.7,1.088,6.855,6.855,0,0,1-4.76-2.763A6.785,6.785,0,0,1,.016,6.663a6.865,6.865,0,0,1,2.28-4.8A6.829,6.829,0,0,1,6.057.074,6.871,6.871,0,0,1,9.986.648a7,7,0,0,1,3.233,3,6.805,6.805,0,0,1,.85,2.822,6.946,6.946,0,0,1-.974,4.182c-.071.119-.034.175.047.255,1.2,1.2,2.4,2.4,3.6,3.6a2.153,2.153,0,0,1,.695,1.078v.442ZM11.808,7.054a4.757,4.757,0,1,0-4.784,4.752,4.759,4.759,0,0,0,4.784-4.752Z" transform="translate(-0.003 -0.001)" fill="#242331"/>
</svg>
