<svg xmlns="http://www.w3.org/2000/svg" width="115.044" height="30.5" viewBox="0 0 115.044 30.5">
  <g id="PayPal" transform="translate(936.898 -21.779)">
    <path id="Path_3385" data-name="Path 3385" d="M-834.865,39.734a.481.481,0,0,0-.475.406L-838.08,57.52a.445.445,0,0,0,.1.358.445.445,0,0,0,.338.156h3.25a.481.481,0,0,0,.475-.406l.805-5.1a.481.481,0,0,1,.475-.406h2.955a7.009,7.009,0,0,0,6.919-5.933c.54-3.442-2.15-6.444-5.961-6.452Zm3.159,3.88h2.364c1.946,0,2.58,1.149,2.38,2.419s-1.185,2.21-3.068,2.21h-2.406Zm15.554,1.181a7.393,7.393,0,0,0-2.825.613,7.381,7.381,0,0,0-4.1,4.636s-1.579,4.66,1.988,7.22a6.089,6.089,0,0,0,7.031-.152l-.064.409a.445.445,0,0,0,.1.358.445.445,0,0,0,.338.156h3.085a.481.481,0,0,0,.475-.406l1.877-11.9a.445.445,0,0,0-.1-.358.445.445,0,0,0-.338-.156h-3.085a.481.481,0,0,0-.475.406l-.1.641a5.358,5.358,0,0,0-3.81-1.463Zm.1,3.759a3.161,3.161,0,0,1,.969.142,2.729,2.729,0,0,1,1.868,3.093,3.456,3.456,0,0,1-3.465,2.964,3.164,3.164,0,0,1-.969-.142,2.732,2.732,0,0,1-1.872-3.093,3.461,3.461,0,0,1,3.469-2.965Z" transform="translate(-65.246 -11.856)" fill="#003087"/>
    <path id="Path_3386" data-name="Path 3386" d="M-704.065,39.734a.481.481,0,0,0-.475.406l-2.741,17.381a.445.445,0,0,0,.1.358.445.445,0,0,0,.338.156h3.25a.481.481,0,0,0,.475-.406l.805-5.1a.481.481,0,0,1,.475-.406h2.955a7.008,7.008,0,0,0,6.918-5.933c.54-3.442-2.149-6.444-5.961-6.452Zm3.16,3.88h2.364c1.946,0,2.58,1.149,2.38,2.419s-1.184,2.21-3.068,2.21h-2.406Zm15.554,1.181a7.392,7.392,0,0,0-2.825.613,7.382,7.382,0,0,0-4.1,4.636s-1.578,4.66,1.989,7.22a6.088,6.088,0,0,0,7.031-.152l-.064.409a.445.445,0,0,0,.1.358.445.445,0,0,0,.338.156h3.085a.481.481,0,0,0,.475-.406l1.878-11.9a.445.445,0,0,0-.1-.359.445.445,0,0,0-.338-.156h-3.085a.481.481,0,0,0-.475.406l-.1.641a5.358,5.358,0,0,0-3.81-1.463Zm.1,3.759a3.16,3.16,0,0,1,.969.142,2.729,2.729,0,0,1,1.868,3.093,3.456,3.456,0,0,1-3.465,2.964,3.165,3.165,0,0,1-.969-.142,2.733,2.733,0,0,1-1.872-3.093,3.461,3.461,0,0,1,3.469-2.965Z" transform="translate(-151.614 -11.856)" fill="#0070e0"/>
    <path id="Path_3387" data-name="Path 3387" d="M-746.622,55.858a.361.361,0,0,0-.344.472l3.383,10.5-3.059,4.947a.361.361,0,0,0,.306.55h3.615a.6.6,0,0,0,.514-.29l9.447-15.628a.361.361,0,0,0-.309-.547h-3.615a.6.6,0,0,0-.517.3l-3.719,6.278-1.888-6.232a.481.481,0,0,0-.46-.342Z" transform="translate(-125.401 -22.503)" fill="#003087"/>
    <path id="Path_3388" data-name="Path 3388" d="M-615.369,39.734a.481.481,0,0,0-.475.406l-2.741,17.38a.445.445,0,0,0,.1.359.445.445,0,0,0,.338.156h3.25a.481.481,0,0,0,.475-.406l2.741-17.381a.445.445,0,0,0-.1-.358.445.445,0,0,0-.338-.156Z" transform="translate(-210.179 -11.856)" fill="#0070e0"/>
    <path id="Path_3389" data-name="Path 3389" d="M-912.862,39.734a.88.88,0,0,0-.868.742l-1.443,9.15a.879.879,0,0,1,.868-.742h4.228a8.634,8.634,0,0,0,8.525-7.31,7.058,7.058,0,0,0,.083-.949,8.025,8.025,0,0,0-3.743-.891Z" transform="translate(-14.345 -11.856)" fill="#001c64"/>
    <path id="Path_3390" data-name="Path 3390" d="M-905.68,42.359a7.048,7.048,0,0,1-.083.949,8.635,8.635,0,0,1-8.525,7.31h-4.227a.879.879,0,0,0-.868.742l-1.327,8.408-.831,5.275a.713.713,0,0,0,.162.575.713.713,0,0,0,.543.25h4.589a.88.88,0,0,0,.868-.742l1.209-7.666a.88.88,0,0,1,.869-.742h2.7a8.634,8.634,0,0,0,8.525-7.31,6.7,6.7,0,0,0-3.6-7.049Z" transform="translate(-10.134 -13.589)" fill="#0070e0"/>
    <path id="Path_3391" data-name="Path 3391" d="M-932.42,21.779a.879.879,0,0,0-.868.742l-3.6,22.833a.714.714,0,0,0,.706.825h5.34l1.326-8.408,1.443-9.15a.88.88,0,0,1,.868-.742h7.65a8.027,8.027,0,0,1,3.743.891c.074-3.829-3.086-6.991-7.43-6.991Z" fill="#003087"/>
  </g>
</svg>
