<svg xmlns="http://www.w3.org/2000/svg" width="21.787" height="24.9" viewBox="0 0 21.787 24.9">
  <path id="Icon_fa-solid-bag-shopping" data-name="Icon fa-solid-bag-shopping" d="M7.781,5.447a3.112,3.112,0,0,1,6.225,0V7.781H7.781ZM5.447,7.781H2.334A2.335,2.335,0,0,0,0,10.116V20.231A4.67,4.67,0,0,0,4.669,24.9h12.45a4.67,4.67,0,0,0,4.669-4.669V10.116a2.335,2.335,0,0,0-2.334-2.334H16.34V5.447a5.447,5.447,0,0,0-10.894,0Zm1.167,2.334a1.167,1.167,0,1,1-1.167,1.167A1.167,1.167,0,0,1,6.614,10.116Zm7.392,1.167a1.167,1.167,0,1,1,1.167,1.167A1.167,1.167,0,0,1,14.006,11.283Z"/>
</svg>
