<svg xmlns="http://www.w3.org/2000/svg" width="53.02" height="60.594" viewBox="0 0 53.02 60.594">
  <path id="shopping2" d="M18.936,13.255a7.574,7.574,0,0,1,15.148,0v5.681H18.936Zm-5.681,5.681H5.681A5.682,5.682,0,0,0,0,24.616V49.232A11.364,11.364,0,0,0,11.361,60.594h30.3A11.364,11.364,0,0,0,53.02,49.232V24.616a5.682,5.682,0,0,0-5.681-5.681H39.765V13.255a13.255,13.255,0,0,0-26.51,0Zm2.84,5.681a2.84,2.84,0,1,1-2.84,2.84A2.84,2.84,0,0,1,16.1,24.616Zm17.989,2.84a2.84,2.84,0,1,1,2.84,2.84A2.84,2.84,0,0,1,34.084,27.457Z" fill="#c781b7"/>
</svg>
