<svg xmlns="http://www.w3.org/2000/svg" width="108.5" height="86.8" viewBox="0 0 108.5 86.8">
  <g id="Show" transform="translate(0 0)">
    <path id="Path_3395" data-name="Path 3395" d="M54.25,0A50.261,50.261,0,0,1,85.371,11.1c9.262,7.154,17.148,17.623,22.811,30.722a3.95,3.95,0,0,1,0,3.1C96.856,71.123,76.691,86.8,54.25,86.8H54.2C31.809,86.8,11.644,71.123.318,44.926a3.95,3.95,0,0,1,0-3.1C11.644,15.624,31.809,0,54.2,0h0Zm0,22.358A21.016,21.016,0,1,0,75.368,43.4,21.1,21.1,0,0,0,54.25,22.358Zm.006,7.879A13.126,13.126,0,1,1,41.025,43.388a13.733,13.733,0,0,1,.265-2.578h.265A10.831,10.831,0,0,0,52.4,30.395,10.556,10.556,0,0,1,54.256,30.237Z" fill="#c781b7"/>
  </g>
</svg>
