<svg xmlns="http://www.w3.org/2000/svg" xmlns:xlink="http://www.w3.org/1999/xlink" width="25.149" height="24.387" viewBox="0 0 25.149 24.387">
  <defs>
    <linearGradient id="linear-gradient" x1="-0.122" x2="1.523" y2="1.596" gradientUnits="objectBoundingBox">
      <stop offset="0" stop-color="#b48e5d"/>
      <stop offset="0.19" stop-color="#8e6f3f"/>
      <stop offset="0.39" stop-color="#c89e61"/>
      <stop offset="0.55" stop-color="#efbd79"/>
      <stop offset="0.63" stop-color="#feca82"/>
      <stop offset="0.7" stop-color="#ecbb77"/>
      <stop offset="0.85" stop-color="#bf965c"/>
      <stop offset="1" stop-color="#8e6f3f"/>
    </linearGradient>
  </defs>
  <path id="starDone" d="M15.641.857a1.526,1.526,0,0,0-2.743,0l-3.062,6.3L3,8.168a1.524,1.524,0,0,0-.848,2.591l4.963,4.91L5.939,22.608a1.528,1.528,0,0,0,2.224,1.6l6.11-3.262,6.11,3.262a1.528,1.528,0,0,0,2.224-1.6l-1.176-6.939,4.963-4.91a1.524,1.524,0,0,0-.848-2.591L18.7,7.158Z" transform="translate(-1.698)" fill="url(#linear-gradient)"/>
</svg>
