<svg xmlns="http://www.w3.org/2000/svg" width="57.069" height="45.662" viewBox="0 0 57.069 45.662">
  <path id="user4" d="M19.977,22.831A11.416,11.416,0,1,0,8.562,11.416,11.416,11.416,0,0,0,19.977,22.831ZM15.9,27.112A15.9,15.9,0,0,0,0,43.014a2.649,2.649,0,0,0,2.649,2.649h26.14a4.337,4.337,0,0,1-.125-2.479L30,37.823a5.663,5.663,0,0,1,1.5-2.649l3.594-3.594a15.846,15.846,0,0,0-11.05-4.468Zm38.84-6.091a3.574,3.574,0,0,0-5.048,0l-2.622,2.622L53.4,29.975l2.622-2.622a3.574,3.574,0,0,0,0-5.048ZM33.524,37.19a2.824,2.824,0,0,0-.749,1.329l-1.338,5.36a1.426,1.426,0,0,0,1.73,1.73l5.36-1.338a2.868,2.868,0,0,0,1.329-.749L51.379,31.991l-6.332-6.332Z" fill="#c781b7"/>
</svg>
