<svg xmlns="http://www.w3.org/2000/svg" width="73" height="47" viewBox="0 0 73 47">
  <g id="visa-svgrepo-com" transform="translate(-0.141 0.28)">
    <rect id="Rectangle_41" data-name="Rectangle 41" width="73" height="47" transform="translate(0.141 -0.28)" fill="#0e4595"/>
    <path id="Path_3383" data-name="Path 3383" d="M132.662,167.55l3.1-18.209h4.964l-3.105,18.209Zm22.893-17.817a12.819,12.819,0,0,0-4.448-.765c-4.9,0-8.359,2.47-8.388,6.009-.028,2.617,2.466,4.076,4.349,4.947,1.932.893,2.581,1.462,2.572,2.259-.012,1.22-1.543,1.778-2.969,1.778a10.405,10.405,0,0,1-4.672-.956l-.64-.289-.7,4.076a15.715,15.715,0,0,0,5.529.971c5.217,0,8.6-2.441,8.643-6.221.019-2.071-1.3-3.648-4.167-4.947-1.735-.842-2.8-1.4-2.786-2.257,0-.757.9-1.566,2.842-1.566a9.16,9.16,0,0,1,3.715.7l.445.21.673-3.947m12.772-.393h-3.835a2.47,2.47,0,0,0-2.6,1.51l-7.371,16.688h5.212s.852-2.244,1.045-2.736l6.357.008c.148.637.6,2.729.6,2.729h4.606l-4.017-18.2ZM162.242,161.1c.41-1.049,1.978-5.09,1.978-5.09-.029.049.407-1.054.658-1.738l.335,1.57s.951,4.347,1.149,5.258ZM128.448,149.34l-4.859,12.418-.518-2.524A14.211,14.211,0,0,0,116.2,151.6l4.443,15.925,5.251-.006,7.814-18.175h-5.258" transform="translate(-105.192 -135.207)" fill="#fff"/>
    <path id="Path_3384" data-name="Path 3384" d="M68.265,152.956h-8l-.063.379c6.227,1.507,10.347,5.15,12.057,9.526l-1.74-8.368a2.078,2.078,0,0,0-2.25-1.537" transform="translate(-54.402 -138.824)" fill="#f2ae14"/>
  </g>
</svg>
