<svg id="Wallet" xmlns="http://www.w3.org/2000/svg" width="52.665" height="47.398" viewBox="0 0 52.665 47.398">
  <path id="Path_3393" data-name="Path 3393" d="M38.223,0C47.3,0,52.665,5.226,52.665,14.172H41.524v.091a9.248,9.248,0,0,0-9.363,9.128,9.248,9.248,0,0,0,9.363,9.128H52.665v.822c0,8.832-5.36,14.058-14.442,14.058H14.442C5.36,47.4,0,42.173,0,33.341H0V14.058C0,5.226,5.36,0,14.442,0H38.223ZM50.7,18.1a1.942,1.942,0,0,1,1.966,1.917h0v6.664A1.965,1.965,0,0,1,50.7,28.594H41.734a5.545,5.545,0,0,1-5.5-4.2,5.22,5.22,0,0,1,1.14-4.35,5.508,5.508,0,0,1,4.15-1.948H50.7Zm-7.911,3.081h-.866a2.017,2.017,0,0,0-1.422.56,1.916,1.916,0,0,0-.591,1.38A2.011,2.011,0,0,0,41.921,25.1h.866a1.963,1.963,0,1,0,0-3.925ZM27.339,10.246H12.476a1.989,1.989,0,0,0-2.013,1.94,2.011,2.011,0,0,0,2.013,1.985H27.339a1.963,1.963,0,1,0,0-3.925Z" transform="translate(0 0)" fill="#c781b7"/>
</svg>
